<?xml version="1.0" encoding="UTF-8"?>
<svg width="100px" height="100px" viewBox="0 0 100 100" xmlns="http://www.w3.org/2000/svg">
  <g fill="none" stroke="currentColor" stroke-width="2" stroke-linecap="round" stroke-linejoin="round">
    <!-- Robot head -->
    <rect x="30" y="20" width="40" height="35" rx="5" ry="5" fill="#d1e7ff" />
    <!-- Antenna -->
    <line x1="50" y1="20" x2="50" y2="10" />
    <circle cx="50" cy="8" r="2" fill="#ff9999" />
    <!-- Eyes -->
    <circle cx="40" cy="35" r="5" fill="#66ccff" />
    <circle cx="60" cy="35" r="5" fill="#66ccff" />
    <circle cx="40" cy="35" r="2" fill="#fff" />
    <circle cx="60" cy="35" r="2" fill="#fff" />
    <!-- Mouth -->
    <rect x="38" y="45" width="24" height="5" rx="2" ry="2" fill="#333" />
    <line x1="38" y1="47.5" x2="62" y2="47.5" stroke="#666" />
    <!-- Body -->
    <rect x="35" y="55" width="30" height="25" rx="3" ry="3" fill="#b3d9ff" />
    <!-- Controls -->
    <circle cx="42" cy="65" r="2" fill="#ff6666" />
    <circle cx="50" cy="65" r="2" fill="#66ff66" />
    <circle cx="58" cy="65" r="2" fill="#ffcc66" />
    <!-- Arms -->
    <line x1="35" y1="60" x2="25" y2="50" />
    <line x1="65" y1="60" x2="75" y2="50" />
    <!-- Legs -->
    <line x1="42" y1="80" x2="42" y2="90" />
    <line x1="58" y1="80" x2="58" y2="90" />
    <line x1="38" y1="90" x2="46" y2="90" />
    <line x1="54" y1="90" x2="62" y2="90" />
  </g>
</svg>